<svg width="93" height="94" viewBox="0 0 93 94" fill="none" xmlns="http://www.w3.org/2000/svg">
<path d="M41.6961 1.49041C44.855 0.648033 51.3138 0.752697 54.0164 1.70037C59.3864 3.56062 63.2125 6.61463 64.8621 10.3C65.3886 11.4582 65.915 12.4054 66.0203 12.4054C66.0943 12.4042 67.2858 12.0545 68.6521 11.6691C70.7229 11.0374 71.741 10.9321 75.2156 11.0724C79.0413 11.2128 79.4981 11.2824 81.9549 12.4406C86.4475 14.6167 89.8524 18.3725 91.7127 23.2863C92.4497 25.2518 92.5545 26.1647 92.5896 29.9553C92.5896 33.8863 92.4846 34.6586 91.6072 37.1506C90.2033 41.222 88.7996 43.469 85.8162 46.4875C83.2189 49.0848 81.0772 50.4528 78.2342 51.3654C77.4622 51.611 76.6902 51.9271 76.5496 52.0676C76.3741 52.2079 75.7773 55.8939 75.2508 60.176C72.0219 85.4804 71.8116 86.7104 70.864 88.5705C70.127 90.0094 67.9507 91.6942 66.0555 92.2209C58.1231 94.6076 34.3602 93.4495 19.4432 89.9396C13.6873 88.6059 12.073 86.8504 12.073 81.9015C12.0732 80.4264 13.0908 72.1435 14.3543 63.4748C15.6178 54.8405 16.6355 47.4694 16.6355 47.1535C16.6351 46.7676 15.9329 46.4163 14.1785 45.9601C7.22909 44.17 2.56142 39.6074 0.841592 32.9738C-0.000771479 29.6745 -0.036138 27.7443 0.665811 24.7609C1.89426 19.5663 5.78996 14.6172 10.5984 12.1252C14.1083 10.3 16.3552 9.80813 19.9353 10.0187C22.0411 10.1591 23.4805 10.5103 25.3406 11.2824L27.867 12.3361L29.2361 10.3351C32.2195 5.98295 36.5718 2.89441 41.6961 1.49041ZM45.8758 76.9543C37.5578 76.2173 20.2914 75.7608 18.7449 76.217C18.0429 76.4276 17.8324 76.8139 17.5867 78.1828C17.4463 79.1305 17.3407 80.7803 17.4109 81.8683C17.5162 83.5527 17.6213 83.869 18.3933 84.2551C19.692 84.8517 33.4858 87.0979 39.9441 87.7297C50.1579 88.7475 62.7591 88.3612 65.4617 86.9924C66.6548 86.3607 66.8303 85.9037 67.076 82.6047L67.2869 79.9377L62.9344 79.1652C55.9848 77.9367 54.3346 77.7264 45.8758 76.9543ZM53.1765 6.65056C50.8248 5.98373 45.2439 5.94854 42.8572 6.61541C38.0137 7.9492 34.6793 10.8983 32.784 15.4611C32.1522 16.9702 31.4153 18.4792 31.0994 18.7951C30.2219 19.8129 28.537 19.5673 26.782 18.2336C24.0445 16.1629 22.2897 15.4609 19.4119 15.2853C16.0424 15.0747 13.7957 15.777 10.8123 17.883C7.09194 20.4803 5.23127 24.2003 5.23124 28.9035C5.23124 32.0975 5.82817 33.9227 7.75858 36.6955C9.54863 39.2928 14.8837 41.7143 17.9373 41.2931C18.955 41.1528 19.4816 41.2933 20.2185 41.8898C22.1139 43.364 22.1491 44.1014 20.324 56.9123C19.4466 63.2996 18.7452 68.9854 18.8152 69.5129L18.9197 70.4611L25.7644 70.4611L32.6092 70.4963L33.0652 67.3371C33.3109 65.5821 33.8727 61.2648 34.3641 57.6847C35.1011 52.0338 35.3114 51.1214 35.9783 50.5949C36.9611 49.7525 38.2249 49.7877 39.1023 50.6652C40.0146 51.5778 40.0145 53.0525 38.9617 60.5627C38.4704 63.8967 37.9791 67.6169 37.8387 68.8107L37.6277 70.9523L39.4881 71.1623C42.9623 71.5483 51.7696 72.1452 51.9129 72.0051C51.948 71.97 52.5096 67.9337 53.1414 63.1252C54.4048 53.3685 54.6858 51.9989 55.4578 51.1916C56.581 50.1035 58.6169 50.7353 59.1785 52.4201C59.2836 52.7375 58.8628 57.2998 58.1961 62.5988C57.5647 67.8957 57.1433 72.351 57.283 72.4963C57.4234 72.6016 59.5996 73.0585 62.0916 73.4797C64.618 73.9007 66.9692 74.3214 67.3914 74.3918C68.2689 74.6024 68.1993 74.9533 70.1648 59.966C70.9721 54.1046 71.6742 50.0331 72.0252 49.2961C72.5165 48.2783 72.9728 47.962 74.9031 47.3302C78.5181 46.1018 80.168 45.1191 82.6599 42.6271C86.4856 38.8014 88.0999 34.5193 87.8191 28.9386C87.7138 26.3414 87.503 25.6045 86.4851 23.7092C84.8355 20.6204 82.5191 18.2687 79.992 17.0754C78.167 16.2331 77.4298 16.092 74.6922 16.092C71.5335 16.092 71.4631 16.0923 67.743 17.9875C64.2684 19.7072 63.917 19.8129 62.9344 19.4269C61.6006 18.8654 61.3191 18.3038 60.7224 14.8644C60.4417 13.3201 59.881 11.5294 59.4949 10.8625C58.5121 9.31812 55.5633 7.31744 53.1765 6.65056Z" fill="#F96494"/>
</svg>
