<svg width="85" height="91" viewBox="0 0 85 91" fill="none" xmlns="http://www.w3.org/2000/svg">
<path d="M50.6138 73.2238L20.8955 27.302C18.0839 22.9575 19.3266 17.1563 23.6712 14.3447C28.0157 11.5331 33.8169 12.7759 36.6285 17.1204L66.3468 63.0421C69.1584 67.3867 67.9157 73.1878 63.5712 75.9994C59.2266 78.811 53.4254 77.5683 50.6138 73.2238Z" fill="#02B2ED"/>
<path d="M56.9456 24.976C61.2902 22.1644 67.0914 23.4071 69.903 27.7516C72.7146 32.0962 71.4718 37.8974 67.1273 40.709L28.181 65.9132C23.8364 68.7248 18.0352 67.482 15.2236 63.1375C12.4121 58.7929 13.6548 52.9918 17.9993 50.1802L56.9456 24.976Z" fill="#02B2ED"/>
<path d="M26.8969 69.774L39.7111 16.5971C40.9235 11.5662 45.9846 8.47058 51.0156 9.6829C56.0465 10.8952 59.1421 15.9564 57.9298 20.9873L45.1155 74.1642L44.9908 74.6298C43.5872 79.3845 38.685 82.2529 33.8111 81.0784C28.9372 79.9039 25.8796 75.1174 26.7959 70.2453L26.8969 69.774Z" fill="#02B2ED"/>
<path d="M66.2322 41.1259C71.2631 42.3382 74.3587 47.3994 73.1464 52.4303C71.9341 57.4613 66.8729 60.5569 61.842 59.3445L16.7425 48.4767C11.7116 47.2644 8.616 42.2033 9.82833 37.1723C11.0407 32.1414 16.1018 29.0458 21.1328 30.2581L66.2322 41.1259Z" fill="#02B2ED"/>
</svg>
