<svg width="95" height="86" viewBox="0 0 95 86" fill="none" xmlns="http://www.w3.org/2000/svg">
<path d="M60.6238 27.5646L67.4164 4.74522C68.3266 0.427852 73.3585 -1.70288 76.221 2.17575C79.0836 6.05439 80.4502 11.0283 81.8583 14.2526C85.7372 23.2977 89.6812 33.1249 93.1014 42.3313C95.881 49.709 94.5001 51.0135 88.4594 55.7892C75.9578 65.5716 54.6247 77.2111 39.5523 82.3183C24.4799 87.4254 30.9145 85.523 26.9593 80.155C19.8796 70.598 11.7006 59.3735 5.46148 49.3542C-0.777624 39.335 -2.19061 36.9312 7.34485 36.6863C12.3321 38.1243 17.1225 40.0341 22.0781 41.5804C27.0336 43.1268 30.2996 44.4208 32.5946 44.6128C34.8897 44.8049 33.0667 44.8077 33.4486 44.5068L30.1843 11.859C30.966 6.97616 34.8338 6.21253 38.6503 8.83961C44.2666 12.749 50.8171 18.6892 56.1733 23.2869C61.5295 27.8845 59.2759 25.943 60.6555 27.4563L60.6238 27.5646ZM38.1742 17.0987C37.3969 17.3443 37.7922 17.3996 37.8056 17.7557C38.0585 27.3406 40.403 37.4111 40.5475 46.9648C40.6786 56.1622 32.5388 52.6408 27.0412 50.9381C21.5435 49.2355 16.5612 46.9768 11.3188 45.4065L33.5438 76.5343C36.2324 75.783 38.8827 74.9618 41.4178 73.9314C52.4372 69.417 63.1096 63.276 73.2081 57.0869C78.2065 54.0658 83.3517 51.1457 87.6345 47.155L72.9046 11.9057L66.9825 33.156C65.9938 36.3351 62.4847 38.0829 59.689 35.985C56.8933 33.8872 56.6114 33.0426 55.0984 31.7843C49.3786 27.0231 43.4871 22.4472 38.2125 17.1685L38.1742 17.0987Z" fill="#FF9601"/>
</svg>
