<svg width="124" height="119" viewBox="0 0 124 119" fill="none" xmlns="http://www.w3.org/2000/svg">
<path d="M6.58154 62.223L89.1658 113.252L119.281 64.513C121.452 61.0005 117.524 56.9023 113.923 58.9211L99.9135 66.7736C98.736 67.4336 97.2562 66.7616 96.9784 65.4406L91.9037 41.312C91.3051 38.4658 87.9656 37.1897 85.6215 38.9114L72.6659 48.4272C71.3447 49.3976 69.4812 48.4536 69.482 46.8142L69.4941 23.3388C69.4957 20.0883 65.8252 18.1932 63.1761 20.0768L45.1513 32.8932C44.0753 33.6583 42.5663 33.1893 42.1136 31.9491L33.066 7.16433C31.8142 3.73521 27.0002 3.63727 25.61 7.01265L4.79706 57.5457" stroke="#F96494" stroke-width="8" stroke-linecap="round"/>
</svg>
