<svg width="98" height="94" viewBox="0 0 98 94" fill="none" xmlns="http://www.w3.org/2000/svg">
<path d="M44.1125 20.2108L58.7664 49.8313C60.882 54.1076 65.934 56.0332 70.3592 54.2501C74.8982 52.4211 77.1873 47.3379 75.5483 42.7268L64.4676 11.5524C62.5169 6.06428 56.3074 3.39798 50.9847 5.76296L49.0152 6.63806C43.8201 8.94635 41.5917 15.1155 44.1125 20.2108Z" stroke="#FF9601" stroke-width="6" stroke-linecap="round"/>
<circle cx="12.2945" cy="12.2945" r="9.29448" transform="matrix(-0.92753 0.373749 0.373749 0.92753 87.9102 58.666)" stroke="#FF9601" stroke-width="6"/>
<path d="M5.56368 33.9447L17.5913 58.2565C19.3852 61.8826 23.6689 63.5154 27.4213 62.0034C31.2701 60.4525 33.211 56.1423 31.8213 52.2324L22.737 26.6745C20.9149 21.5483 15.1148 19.0578 10.1431 21.2669C5.29055 23.423 3.2091 29.1853 5.56368 33.9447Z" stroke="#FF9601" stroke-width="5" stroke-linecap="round"/>
<circle cx="10.425" cy="10.425" r="7.92497" transform="matrix(-0.92753 0.373749 0.373749 0.92753 42.3047 65.7461)" stroke="#FF9601" stroke-width="5"/>
</svg>
