<svg width="81" height="85" viewBox="0 0 81 85" fill="none" xmlns="http://www.w3.org/2000/svg">
<path d="M46.4302 21.6497C40.7569 19.3199 36.2788 12.002 33.7712 6.98542C32.9379 5.31828 30.2095 5.34284 29.4017 7.02248C27.8147 10.3221 25.4561 14.4547 22.6983 16.8376C19.3796 19.705 13.4529 21.7925 10.4589 22.7199C9.43484 23.0371 8.79373 24.0786 8.9811 25.1342C9.53021 28.2277 10.4491 34.4864 9.82682 38.8934C9.24521 43.0124 6.90105 48.462 5.70683 51.0464C5.30579 51.9143 5.54215 52.9511 6.27054 53.5704C8.29227 55.2892 12.183 58.8565 13.8492 62.1523C15.4319 65.2829 15.9768 70.086 16.1643 73.0765C16.2486 74.4215 17.5729 75.3998 18.8778 75.0631C22.9731 74.0063 31.025 72.2427 36.7765 72.9797C42.2845 73.6854 49.227 77.1386 53.1078 79.2772C54.452 80.0181 56.193 79.0992 56.3526 77.5726C56.786 73.426 57.8758 66.4659 60.5084 62.1523C63.6007 57.0855 70.782 52.4583 74.5664 50.2617C75.7484 49.5756 76.0019 47.9172 75.0747 46.9131C73.2012 44.8842 70.428 41.661 68.9553 38.8934C66.6302 34.5238 65.5732 27.5804 65.1599 23.9826C65.0194 22.7599 63.8477 21.8891 62.6344 22.0958C58.8608 22.7389 51.2872 23.6444 46.4302 21.6497Z" stroke="#2963B2" stroke-width="10" stroke-linecap="round"/>
</svg>
