<svg width="96" height="102" viewBox="0 0 96 102" fill="none" xmlns="http://www.w3.org/2000/svg">
<path d="M19 30C15.7225 29.7987 11.4061 29.823 8.24534 29.8834C6.55378 29.9156 5.70415 31.9046 6.83228 33.1655L19.8277 47.6898C20.4981 48.4391 20.508 49.5696 19.8509 50.3306L4.85625 67.6928C3.73711 68.9886 4.65768 71 6.3699 71H25.4253C26.3491 71 27.1527 71.6327 27.3695 72.5307L33.0993 96.2683C33.4788 97.8407 35.4709 98.3355 36.5421 97.1234L52.2577 79.34C52.7188 78.8182 53.4182 78.5738 54.1039 78.6948L73.6208 82.139C75.3927 82.4517 76.6441 80.4482 75.5859 78.9931L67.813 68.3053C67.1123 67.3419 67.4039 65.9835 68.4381 65.3925L90.2122 52.9502C91.7725 52.0586 91.4566 49.7215 89.7156 49.2761L75.038 45.5213C73.9295 45.2378 73.2844 44.0837 73.6235 42.9909L80.61 20.4789C81.1322 18.7963 79.3812 17.3094 77.8054 18.0973L62.9492 25.5254C61.9008 26.0496 60.6255 25.5664 60.1662 24.488C59.2008 22.2217 57.545 18.5261 56 16C53.6592 12.1728 49.4707 7.59318 46.9927 5.018C46.0333 4.02096 44.3955 4.32519 43.8213 5.58409L32.6257 30.1282C32.2553 30.9403 31.3952 31.4095 30.5114 31.285C27.9774 30.9281 22.7375 30.2296 19 30Z" stroke="#F96494" stroke-width="8" stroke-linecap="round"/>
</svg>
