<svg width="73" height="74" viewBox="0 0 73 74" fill="none" xmlns="http://www.w3.org/2000/svg">
<path d="M58.0124 49.999C58.3511 53.7858 64.0242 60.5178 59.5365 63.6314C55.0488 66.745 47.0048 61.0227 42.6864 60.602C41.501 61.6118 40.4002 62.7058 39.3841 63.7997C37.2673 65.9876 32.9489 71.9623 30.8321 73.3087C28.7152 74.6552 26.2597 73.8978 24.9049 72.2148C22.1953 68.5963 21.8566 60.0129 20.1631 55.7212C18.4697 51.4296 19.8245 54.7956 19.4011 54.5431C18.131 53.7858 13.0505 54.7956 11.2724 54.8797C6.53065 55.048 -2.02141 55.9737 0.434132 48.6526C3.22837 44.445 8.39348 40.0692 10.849 35.9458C11.8543 33.6603 11.0076 33.8531 10.341 32.9164C7.88543 29.4662 -0.835971 23.1549 2.21229 18.3583C3.81032 15.8437 5.00652 16.3387 6.3613 16.3387C10.2563 16.3387 15.6754 17.7693 19.9091 17.9376C24.1428 18.1059 23.7194 18.19 24.9896 17.5168C27.5298 16.2545 31.0014 5.0625 33.4569 2.20138C35.8278 -0.575596 39.5535 -0.828049 41.9243 2.03308C44.2952 4.8942 47.5128 15.6655 48.4442 16.0862C51.4078 17.5168 59.2825 10.1115 63.7702 12.7202C68.2579 15.3289 65.125 20.4621 64.0242 23.744C62.9235 27.0258 61.3993 29.8028 61.484 30.1394C61.6534 31.2334 69.528 33.253 71.1368 34.347C72.7456 35.4409 73.677 38.2179 72.4069 40.4058C68.1732 44.1926 62.7541 46.8854 57.9277 49.999H58.0124ZM38.1987 6.32477C37.606 6.15646 37.606 6.49306 37.3519 6.91382C33.7956 11.9629 32.5255 22.7342 24.8202 23.6598C17.1149 24.5855 13.5586 22.9025 8.56283 22.0609C8.39348 22.65 8.81684 22.7342 9.07087 22.9866C11.3571 25.9319 18.4697 30.0553 18.3003 34.0945C17.7815 37.0263 17.1996 37.0398 16.4375 38.1337C13.8973 41.8364 10.087 45.4548 7.29272 49.0733C11.7804 49.3258 16.6068 47.9794 21.0099 48.4001C25.4129 48.8209 24.4815 49.999 25.1589 52.0186C25.8363 54.0382 28.2918 66.5767 28.9692 67.0816C32.1022 64.5571 37.2673 55.9737 40.9082 55.048C44.5492 54.1224 50.5611 57.7409 54.7948 58.0775C53.6093 53.9541 49.3756 49.5782 53.8634 46.0439C58.3511 42.5096 61.9074 41.1632 65.4637 38.8069C65.8024 38.302 57.9277 35.6934 57.2503 35.1885C52.5086 32.159 56.9963 26.9417 58.3511 23.2391C59.7059 19.5364 59.7905 18.7791 59.6212 18.6108C53.7787 20.8828 46.412 25.8477 42.7711 17.8534C39.1301 9.85909 40.0615 10.0274 38.2834 6.40891L38.1987 6.32477Z" fill="#FF9601"/>
</svg>
