<svg width="83" height="95" viewBox="0 0 83 95" fill="none" xmlns="http://www.w3.org/2000/svg">
<path d="M54.1427 24.0371C60.3406 22.1185 70.9088 17.8019 77.1862 20.2C83.4635 22.5982 83.543 28.7534 80.8413 33.6296C78.1397 38.5059 72.498 44.4213 67.4126 48.5781C73.6105 52.6549 86.483 61.1284 82.1127 70.0814C78.2192 78.0753 61.6914 75.1975 55.1757 72.1598C53.0302 78.7947 51.3616 91.8246 44.1307 94.5425C36.8998 97.2604 31.1787 87.2682 29.1127 80.3935C27.0467 73.5188 27.1262 71.5203 26.7289 71.2006C26.3316 70.8808 25.9343 71.0407 25.537 71.1206C22.3586 71.5203 17.9088 73.6787 14.1742 74.2382C10.4395 74.7978 5.03625 75.1176 2.01676 71.4404C-4.97574 63.0469 7.97628 52.575 14.0947 48.0984C8.45304 41.7833 -2.59193 35.4682 1.22216 25.3161C3.52651 19.1608 11.1547 19.4806 16.3196 20.8395C17.9088 21.2392 25.7754 24.6766 26.3316 24.1969C26.8878 23.7173 28.7154 13.2454 29.3511 11.3269C31.3376 5.01177 34.1187 -0.983594 41.9058 0.13554C47.8653 0.934922 49.9313 9.16856 51.5205 14.0448C53.1097 18.921 53.6659 20.7596 54.0632 24.0371H54.1427ZM41.1112 8.92874C39.0452 7.64973 37.5355 13.725 37.2971 14.9241C36.4231 19.1608 35.3106 31.9509 31.6554 34.2691C28.0003 36.5874 22.1202 32.2707 18.5445 30.592C14.9688 28.9133 12.0288 27.954 8.29412 28.3537C8.61196 30.3522 9.80387 31.9509 10.9958 33.3898C14.0153 37.067 20.7694 41.2238 22.9148 44.6611C26.8084 51.0562 17.2731 55.9324 13.5385 59.5296C9.80387 63.1268 9.64494 63.6864 8.29412 66.2444C8.29412 67.7632 26.4111 61.8478 27.603 61.7679C31.1787 61.3682 32.9268 62.7271 34.1187 66.0046C36.6614 72.6395 36.6614 81.2728 41.429 87.1083C44.3691 80.953 45.3226 73.9185 47.7859 67.5234C50.2491 61.1284 49.534 62.9669 52.1562 62.4873C54.7784 62.0077 63.3601 65.6049 67.3331 66.2444C69.7169 66.6441 72.3391 67.2037 74.6434 66.2444C74.7229 62.7271 59.546 54.4935 57.8773 50.8163C56.2087 47.1392 60.9763 43.3022 63.8368 40.5043C66.6974 37.7065 71.8623 33.0701 73.9283 28.3537C70.6704 28.1139 67.5715 28.6735 64.4725 29.5528C61.3736 30.4321 53.1892 34.429 50.8054 34.1093C48.4216 33.7895 47.3091 31.3914 46.435 28.9932C45.561 26.5951 41.9853 9.40837 41.1112 8.8488V8.92874Z" fill="#F96494"/>
</svg>
