<svg width="80" height="79" viewBox="0 0 80 79" fill="none" xmlns="http://www.w3.org/2000/svg">
<path d="M65.9625 22.833C89.3347 34.1816 79.7963 57.0134 61.509 67.7883C52.7731 72.9537 34.2748 78.1763 24.1959 78.3086C14.117 78.4409 15.179 74.7608 11.7982 68.873C1.80406 51.8436 -6.73968 26.3594 9.16725 10.0448C25.0742 -6.26984 39.0994 1.19109 44.6241 15.1831C50.1488 29.175 45.2833 19.7929 46.2395 21.7403C53.0242 20.3823 59.4449 19.6123 65.9255 22.6746L65.9625 22.833ZM60.4427 31.7511C52.5474 28.3554 47.3081 33.1097 40.7558 34.7471C34.2035 36.3844 32.6817 32.7316 34.303 28.5844C35.9242 24.4371 36.9719 24.2723 35.3257 19.7292C32.6728 12.6655 22.6514 11.6135 17.3145 16.3074C4.8414 27.2924 12.729 49.253 19.4062 61.3829C26.0834 73.5129 22.0292 66.5306 22.6523 67.0518C23.9354 68.2526 27.2975 67.6226 29.0155 67.4661C38.8723 66.383 54.6789 61.7987 62.1553 55.176C71.3703 47.0541 73.1949 37.3398 60.5403 31.8116L60.4427 31.7511Z" fill="#F96494"/>
</svg>
