<svg width="85" height="90" viewBox="0 0 85 90" fill="none" xmlns="http://www.w3.org/2000/svg">
<path d="M49.4696 84.7064C49.4696 84.7064 83.4676 36.7064 79.4696 18.2064C75.4716 -0.293601 54.7728 3.71524 42.4696 11.7064C34.3246 16.9966 28.2306 23.6511 29.9696 33.2064C31.0752 39.2813 32.8157 46.7138 38.9696 46.2064C44.8109 45.7247 46.5179 39.0673 46.4696 33.2064C46.4349 29.0004 44.6787 26.7856 42.4696 23.2064C38.9857 17.5618 35.8031 13.5 29.9696 11.7064C24.1361 9.91276 18.6384 10.9128 11.9696 18.2064C5.30078 25.5 2.63605 30.4128 7.46957 46.2064C12.3031 62 46.4696 69.2064 46.4696 69.2064" stroke="#02B2ED" stroke-width="10" stroke-linecap="round"/>
</svg>
