<svg width="79" height="114" viewBox="0 0 79 114" fill="none" xmlns="http://www.w3.org/2000/svg">
<path d="M43.8362 96.0743C51.1262 95.5676 52.8806 95.7234 54.0891 96.9708C55.7262 98.6081 55.8045 101.571 54.2844 104.845C52.7641 108.041 49.8009 111.199 46.9163 112.681C44.8503 113.733 44.304 113.812 40.5618 113.812C36.7027 113.812 36.2734 113.734 33.8567 112.526C30.5432 110.888 28.5156 108.627 26.9563 104.729C26.2937 103.092 25.7486 101.493 25.7483 101.181C24.8605 97.8674 27.2681 98.1011 28.009 97.8673C29.1401 97.5164 38.9243 96.4252 43.8362 96.0743ZM48.7473 102.272C48.7473 101.882 47.1878 101.882 39.9758 102.389C34.4402 102.74 33.1536 103.09 33.1536 104.182C33.1537 106.014 37.364 108.158 40.9504 108.158C43.1335 108.119 45.3944 106.872 47.1487 104.65C48.0452 103.558 48.7471 102.467 48.7473 102.272ZM43.2903 83.8722C46.6818 83.5993 53.2315 83.6385 55.1028 83.9503C58.2993 84.4962 59.8975 87.1081 58.3381 89.2911C57.8314 89.9924 57.2058 90.0314 48.8655 90.0314C39.3535 90.0704 36.0391 90.5387 26.2932 93.1896C23.3699 93.9691 22.5509 94.0472 21.5374 93.6964C19.2375 92.9167 18.8089 90.4989 20.6409 88.9396C22.6684 87.2633 34.6751 84.5739 43.2903 83.8722ZM34.7141 0.60267C38.3006 -0.0210635 46.916 0.368331 50.6975 1.3429C56.3892 2.82429 61.574 5.59277 66.6419 9.88099C71.008 13.5845 75.1796 20.2114 77.4407 27.0724C78.4542 30.113 78.5315 30.8547 78.5315 36.6242C78.5705 42.2372 78.4534 43.2515 77.5178 46.7599C75.4127 54.3614 71.359 61.145 63.9524 69.3702C60.7558 72.9567 58.4548 76.8162 57.7141 80.0128C56.9733 82.8971 54.2842 83.6767 52.7639 81.4161C52.1792 80.5196 52.1789 80.1294 52.6077 78.0636C53.7772 72.411 55.4924 69.4867 61.2229 63.3663C69.1755 54.8679 72.9182 46.3302 72.9182 36.7013C72.9181 28.5149 69.5267 20.8348 63.3284 14.9484C57.169 9.1399 51.4383 6.87934 42.1213 6.52845C33.623 6.2166 27.2291 7.81439 21.6155 11.5568C13.8968 16.7026 9.21888 23.9155 7.23072 33.7003C6.41221 37.6768 6.60685 44.5377 7.62037 48.5138C8.94581 53.6595 10.583 56.2719 15.7288 61.6906C22.6678 68.9805 24.7347 72.9959 25.2415 80.091C25.4363 83.2091 25.3971 83.5604 24.6174 84.34C23.604 85.3532 21.811 85.3922 20.9143 84.4181C20.4855 83.9503 20.0956 82.5855 19.9006 80.9484C19.16 75.2179 17.1325 71.6702 11.7141 66.5636C4.4243 59.7026 1.34422 52.724 0.915294 42.3937C0.564445 34.3242 1.85081 28.0472 5.16432 21.4201C7.34737 17.1319 8.63426 15.2994 12.0647 11.713C17.9902 5.55367 24.5005 2.35694 34.7141 0.60267ZM28.2424 35.6105C30.2696 34.7139 31.7513 34.7139 33.7395 35.6105C36.4683 36.858 38.0663 39.3141 40.2883 45.7853C40.4442 46.2526 40.5233 46.2133 40.7571 45.59C42.4723 40.9511 44.6163 37.7937 46.8772 36.5851C48.9823 35.4935 53.1536 36.156 55.1028 37.9103C57.1298 39.7426 57.637 43.5243 56.2337 46.7208C55.7657 47.7345 54.3618 49.5663 53.1145 50.8136C50.6586 53.3085 47.9683 54.868 44.7327 55.6867L42.7053 56.1935L42.4329 58.8829C42.3159 60.3646 42.043 64.8875 41.926 68.9806C41.6142 77.0886 41.2245 78.7266 39.6262 79.1554C38.184 79.5062 36.7415 79.0379 36.2346 78.0245C35.7279 77.1279 35.6887 62.6263 36.1565 58.1818C36.3514 56.1936 36.2734 55.9206 35.6497 55.6867C35.2207 55.5696 33.8176 55.0243 32.4924 54.4786C29.6857 53.3481 26.5272 50.3069 25.3186 47.5001C23.1357 42.5885 24.4226 37.326 28.2424 35.6105ZM51.2415 42.3546C50.6567 41.419 49.4088 41.3407 48.6292 42.1593C47.9656 42.9411 44.8094 49.3717 45.0432 49.6056C45.123 49.6823 45.8628 49.3706 46.719 48.9425C49.4086 47.5782 52.0593 43.6805 51.2415 42.3546ZM33.2307 42.8605C32.1392 40.8337 30.7356 40.0935 30.2678 41.3019C29.4107 43.6019 30.8143 46.8762 33.3479 48.3185C34.3221 48.903 35.2188 49.2924 35.3753 49.1759C35.6862 48.8234 34.3999 45.043 33.2307 42.8605Z" fill="#FF9601"/>
</svg>
