<svg width="144" height="117" viewBox="0 0 144 117" fill="none" xmlns="http://www.w3.org/2000/svg">
<path d="M5 17.891C5 17.891 33.8674 2.36541 53 5.39103C72.2595 8.43673 85.3451 15.4503 95 32.391C100.863 42.678 103.998 50.2205 102 61.891C100.348 71.5372 98.419 78.9013 90 83.891C81.6012 88.8688 73.5399 88.6227 65 83.891C58.5707 80.3287 54.2276 76.6381 53 69.391C51.7404 61.9547 54.6894 56.7467 60 51.391C65.8266 45.515 71.7727 45.2784 80 44.391C83.8827 43.9722 86.0982 44.2269 90 44.391C98.6634 44.7556 104.151 43.7063 112 47.391C122.393 52.2697 126.029 59.2979 131.5 69.391C135.532 76.8282 138.322 81.4333 138.5 89.891C138.689 98.905 136.863 104.644 131.5 111.891" stroke="#2963B2" stroke-width="10" stroke-linecap="round"/>
</svg>
