<svg width="1920" height="240" viewBox="0 0 1920 240" fill="none" xmlns="http://www.w3.org/2000/svg">
<g clip-path="url(#clip0_741_1380)">
<g filter="url(#filter0_d_741_1380)">
<path d="M1724.42 215.868C1726.54 215.861 1728.31 217.515 1728.43 219.651C1728.55 221.857 1726.86 223.743 1724.65 223.862L1722.26 223.983C1717.35 224.215 1712.33 224.346 1707.21 224.375L1705 224.381L1702.79 224.375C1697.67 224.346 1692.65 224.215 1687.75 223.983L1685.35 223.862C1683.15 223.743 1681.45 221.857 1681.57 219.651C1681.69 217.515 1683.46 215.861 1685.58 215.868L1685.78 215.874C1692 216.21 1698.4 216.382 1705 216.381H1705C1711.6 216.382 1718 216.21 1724.22 215.874L1724.42 215.868ZM-114.373 215.487L-112.005 215.605C-106.462 215.865 -100.794 216 -95.001 216C-88.4002 216 -81.9983 215.826 -75.7852 215.488C-73.5795 215.369 -71.6942 217.06 -71.5742 219.266C-71.4545 221.471 -73.1458 223.357 -75.3516 223.477C-81.713 223.822 -88.2595 224 -95.001 224C-100.918 224 -106.711 223.862 -112.379 223.597L-114.801 223.476L-115.006 223.459C-117.11 223.239 -118.695 221.404 -118.581 219.268C-118.467 217.131 -116.695 215.476 -114.579 215.481L-114.373 215.487ZM824.58 215.481C826.696 215.476 828.468 217.131 828.582 219.268C828.696 221.404 827.111 223.239 825.007 223.459L824.802 223.476L822.38 223.597C816.712 223.862 810.919 224 805.002 224C798.26 224 791.714 223.822 785.353 223.477C783.147 223.357 781.455 221.471 781.575 219.266C781.695 217.06 783.581 215.369 785.786 215.488C791.999 215.826 798.401 216 805.002 216C810.795 216 816.463 215.865 822.006 215.605L824.374 215.487L824.58 215.481ZM1599.3 202.014C1600.04 200.007 1602.23 198.952 1604.25 199.587L1604.44 199.653C1615.84 203.88 1628.01 207.437 1641.11 210.169C1643.27 210.62 1644.66 212.739 1644.21 214.901C1643.76 217.064 1641.64 218.451 1639.48 218.001C1626.82 215.363 1615 211.974 1603.88 207.965L1601.66 207.154C1599.59 206.386 1598.53 204.085 1599.3 202.014ZM1805.76 199.587C1807.77 198.953 1809.96 200.007 1810.7 202.014C1811.47 204.085 1810.41 206.386 1808.34 207.154L1806.13 207.965C1795 211.974 1783.18 215.363 1770.53 218.001C1768.36 218.452 1766.24 217.064 1765.79 214.901C1765.34 212.739 1766.73 210.62 1768.89 210.169C1782 207.437 1794.16 203.88 1805.56 199.653L1805.76 199.587ZM-196.621 200.325C-185.105 204.143 -172.69 207.448 -159.352 210.026C-157.183 210.446 -155.764 212.544 -156.183 214.713C-156.589 216.814 -158.571 218.211 -160.666 217.915L-160.869 217.882L-163.424 217.377C-176.142 214.811 -188.04 211.598 -199.138 207.919L-197.879 204.122L-196.621 200.325ZM906.622 200.325C908.719 199.631 910.982 200.767 911.677 202.863C912.372 204.96 911.235 207.224 909.139 207.919C898.041 211.598 886.143 214.811 873.425 217.377L870.87 217.882L870.667 217.915C868.572 218.211 866.59 216.814 866.184 214.713C865.765 212.544 867.184 210.446 869.353 210.026C882.691 207.448 895.106 204.143 906.622 200.325ZM5.55469 199.253C7.62585 198.485 9.92795 199.541 10.6963 201.612C11.4645 203.684 10.4082 205.986 8.33691 206.754L6.12109 207.564C-5.00651 211.576 -16.8251 214.966 -29.4766 217.606C-31.6389 218.057 -33.7577 216.67 -34.209 214.508C-34.6602 212.346 -33.2734 210.227 -31.1113 209.775C-18.0098 207.041 -5.84619 203.481 5.55469 199.253ZM699.305 201.612C700.073 199.541 702.375 198.485 704.446 199.253C715.847 203.481 728.011 207.041 741.112 209.775C743.274 210.227 744.661 212.346 744.21 214.508C743.759 216.67 741.64 218.057 739.478 217.606C726.826 214.966 715.007 211.576 703.88 207.564L701.664 206.754C699.593 205.986 698.536 203.684 699.305 201.612ZM-201.676 202.863C-200.981 200.767 -198.718 199.631 -196.621 200.325L-199.138 207.919C-201.234 207.224 -202.371 204.96 -201.676 202.863ZM-276.493 163.266C-275.191 161.481 -272.689 161.09 -270.904 162.392C-262.141 168.785 -252.054 175.283 -240.589 181.444L-238.277 182.672L-238.098 182.772C-236.276 183.85 -235.6 186.178 -236.595 188.073C-237.59 189.968 -239.89 190.734 -241.812 189.847L-241.996 189.756L-244.376 188.491C-256.183 182.146 -266.579 175.45 -275.619 168.854C-277.403 167.552 -277.795 165.05 -276.493 163.266ZM980.905 162.392C982.69 161.09 985.192 161.481 986.494 163.266C987.796 165.05 987.404 167.552 985.62 168.854C976.58 175.45 966.184 182.146 954.377 188.491L951.997 189.756L951.812 189.847C949.891 190.734 947.59 189.968 946.596 188.073C945.601 186.178 946.277 183.85 948.099 182.772L948.278 182.672L950.59 181.444C962.055 175.283 972.142 168.785 980.905 162.392ZM1526.53 159.833C1527.82 158.124 1530.21 157.74 1531.96 158.927L1532.13 159.047C1542.23 166.657 1552.74 173.849 1563.95 180.4C1565.85 181.516 1566.5 183.965 1565.38 185.872C1564.27 187.779 1561.82 188.42 1559.91 187.306C1549.11 180.989 1538.96 174.114 1529.25 166.886L1527.32 165.435C1525.55 164.105 1525.2 161.597 1526.53 159.833ZM1878.04 158.927C1879.79 157.741 1882.19 158.124 1883.47 159.833C1884.8 161.597 1884.45 164.105 1882.69 165.435L1880.75 166.886C1871.04 174.114 1860.89 180.989 1850.09 187.306C1848.18 188.421 1845.74 187.779 1844.62 185.872C1843.51 183.965 1844.15 181.516 1846.05 180.4C1857.26 173.849 1867.78 166.657 1877.87 159.047L1878.04 158.927ZM77.8613 158.639C79.6252 157.309 82.134 157.661 83.4639 159.425C84.7937 161.189 84.4417 163.697 82.6777 165.027C72.3848 172.787 61.6076 180.161 50.085 186.9C48.1781 188.015 45.7275 187.374 44.6123 185.467C43.4973 183.56 44.1394 181.11 46.0459 179.995C57.2496 173.442 67.7659 166.249 77.8613 158.639ZM626.537 159.425C627.867 157.661 630.376 157.309 632.14 158.639C642.235 166.249 652.751 173.442 663.955 179.995C665.862 181.11 666.504 183.56 665.389 185.467C664.273 187.374 661.823 188.015 659.916 186.9C648.393 180.161 637.616 172.787 627.323 165.027C625.559 163.697 625.207 161.189 626.537 159.425ZM-322.218 116.858C-320.38 115.634 -317.898 116.131 -316.673 117.967L-316.669 117.974C-316.664 117.981 -316.656 117.993 -316.644 118.011C-316.619 118.047 -316.578 118.107 -316.521 118.188C-316.409 118.351 -316.234 118.601 -315.995 118.934C-315.518 119.598 -314.787 120.592 -313.796 121.866C-312.062 124.097 -309.533 127.192 -306.18 130.904L-304.692 132.533L-304.556 132.688C-303.2 134.312 -303.343 136.733 -304.915 138.186C-306.487 139.638 -308.911 139.59 -310.424 138.11L-310.567 137.963L-312.116 136.267C-315.611 132.398 -318.266 129.151 -320.112 126.775C-321.167 125.418 -321.959 124.343 -322.493 123.6C-322.76 123.228 -322.964 122.939 -323.103 122.738C-323.172 122.638 -323.225 122.559 -323.263 122.503C-323.281 122.475 -323.297 122.454 -323.308 122.438C-323.313 122.429 -323.318 122.422 -323.321 122.417C-323.323 122.414 -323.325 122.412 -323.326 122.41C-323.327 122.409 -323.327 122.408 -323.327 122.407L-323.328 122.406C-323.325 122.403 -323.228 122.338 -320.533 120.543L-323.329 122.405C-324.554 120.567 -324.056 118.083 -322.218 116.858ZM1039.58 102.271C1041.09 100.791 1043.51 100.743 1045.09 102.195C1046.66 103.648 1046.8 106.069 1045.45 107.693L1045.31 107.848L1043.82 109.477C1040.47 113.189 1037.94 116.283 1036.21 118.515C1035.21 119.789 1034.48 120.783 1034.01 121.447C1033.77 121.779 1033.59 122.03 1033.48 122.192C1033.42 122.273 1033.38 122.333 1033.36 122.37C1033.35 122.388 1033.34 122.4 1033.33 122.407L1033.33 122.414C1033.3 122.461 1033.26 122.506 1033.23 122.552C1033.2 122.602 1033.15 122.665 1033.1 122.738C1032.96 122.939 1032.76 123.228 1032.49 123.6C1031.96 124.343 1031.17 125.418 1030.11 126.775C1028.27 129.151 1025.61 132.398 1022.12 136.267L1020.57 137.963L1020.42 138.11C1018.91 139.59 1016.49 139.638 1014.92 138.186C1013.34 136.733 1013.2 134.312 1014.56 132.688L1014.69 132.533L1016.18 130.904C1019.53 127.192 1022.06 124.097 1023.8 121.866C1024.79 120.592 1025.52 119.598 1026 118.934C1026.23 118.601 1026.41 118.351 1026.52 118.188C1026.58 118.107 1026.62 118.047 1026.64 118.011C1026.66 117.993 1026.67 117.981 1026.67 117.974L1026.67 117.967C1026.71 117.909 1026.75 117.852 1026.79 117.797C1026.82 117.753 1026.86 117.702 1026.9 117.643C1027.04 117.442 1027.24 117.153 1027.51 116.781C1028.04 116.038 1028.83 114.963 1029.89 113.605C1031.74 111.23 1034.39 107.983 1037.88 104.114L1039.43 102.418L1039.58 102.271ZM1462.45 104.9C1463.91 103.239 1466.44 103.072 1468.1 104.527C1472.98 108.804 1477.82 113.11 1482.65 117.405C1486.28 120.629 1489.9 123.846 1493.53 127.048L1497.17 130.244C1498.83 131.7 1499 134.227 1497.54 135.889C1496.13 137.498 1493.72 137.705 1492.05 136.394L1491.9 136.263C1487.01 131.987 1482.17 127.68 1477.34 123.385C1472.5 119.086 1467.68 114.799 1462.83 110.545C1461.16 109.089 1461 106.562 1462.45 104.9ZM1941.91 104.527C1943.57 103.072 1946.09 103.239 1947.55 104.9C1949.01 106.562 1948.84 109.089 1947.18 110.545C1942.32 114.799 1937.5 119.086 1932.66 123.385C1927.83 127.68 1922.99 131.987 1918.11 136.263L1917.95 136.394C1916.29 137.706 1913.87 137.498 1912.46 135.889C1911.01 134.227 1911.17 131.7 1912.83 130.244L1916.47 127.048C1920.1 123.846 1923.72 120.629 1927.35 117.405C1932.18 113.11 1937.02 108.804 1941.91 104.527ZM142.054 103.987C143.714 102.675 146.13 102.883 147.54 104.492C148.995 106.154 148.828 108.681 147.166 110.137L143.53 113.333C139.899 116.535 136.279 119.752 132.653 122.976C127.822 127.271 122.977 131.577 118.096 135.854C116.434 137.309 113.907 137.142 112.451 135.48C110.996 133.819 111.163 131.292 112.824 129.836C117.68 125.582 122.503 121.294 127.338 116.996C132.169 112.701 137.014 108.394 141.896 104.118L142.054 103.987ZM562.461 104.492C563.871 102.883 566.287 102.675 567.947 103.987L568.105 104.118C572.987 108.394 577.832 112.701 582.663 116.996C587.498 121.294 592.321 125.582 597.177 129.836C598.838 131.292 599.005 133.819 597.55 135.48C596.094 137.142 593.567 137.309 591.905 135.854C587.024 131.577 582.179 127.271 577.348 122.976C573.721 119.752 570.102 116.535 566.471 113.333L562.835 110.137C561.173 108.681 561.006 106.154 562.461 104.492ZM2364.92 102.195C2366.49 100.743 2368.91 100.791 2370.42 102.271L2370.57 102.418L2372.12 104.114C2375.61 107.983 2378.27 111.23 2380.11 113.605C2381.17 114.963 2381.96 116.038 2382.49 116.781C2382.76 117.153 2382.96 117.442 2383.1 117.643C2383.17 117.743 2383.23 117.822 2383.26 117.878C2383.28 117.905 2383.3 117.927 2383.31 117.943C2383.31 117.951 2383.32 117.959 2383.32 117.964C2383.32 117.966 2383.33 117.969 2383.33 117.971C2383.33 117.972 2383.33 117.973 2383.33 117.974L2383.33 117.975C2383.33 117.977 2383.23 118.043 2380.53 119.838L2383.33 117.976C2384.55 119.814 2384.06 122.298 2382.22 123.522C2380.38 124.746 2377.9 124.25 2376.67 122.414L2376.67 122.407C2376.67 122.4 2376.66 122.388 2376.64 122.37C2376.62 122.333 2376.58 122.274 2376.52 122.192C2376.41 122.03 2376.23 121.779 2376 121.447C2375.52 120.783 2374.79 119.789 2373.8 118.515C2372.06 116.284 2369.53 113.189 2366.18 109.477L2364.69 107.848L2364.56 107.693C2363.2 106.069 2363.34 103.648 2364.92 102.195ZM1394.61 54.9141C1395.73 53.0073 1398.18 52.3652 1400.09 53.4805C1411.61 60.2198 1422.39 67.594 1432.68 75.3535C1434.44 76.6834 1434.79 79.1922 1433.46 80.9561C1432.14 82.7199 1429.63 83.0717 1427.86 81.7422C1417.77 74.1315 1407.25 66.9385 1396.05 60.3857C1394.14 59.2705 1393.5 56.821 1394.61 54.9141ZM2009.92 53.4805C2011.82 52.3655 2014.27 53.0073 2015.39 54.9141C2016.5 56.8208 2015.86 59.2704 2013.96 60.3857C2002.75 66.9385 1992.24 74.1315 1982.14 81.7422C1980.38 83.072 1977.87 82.7198 1976.54 80.9561C1975.21 79.1921 1975.56 76.6834 1977.32 75.3535C1987.62 67.594 1998.39 60.2197 2009.92 53.4805ZM209.909 53.0752C211.816 51.9602 214.266 52.602 215.381 54.5088C216.496 56.4157 215.854 58.8653 213.947 59.9805C202.743 66.5321 192.226 73.7237 182.13 81.334L181.962 81.4541C180.21 82.6402 177.815 82.2566 176.527 80.5479C175.198 78.7839 175.551 76.276 177.314 74.9463L179.25 73.4951C188.958 66.267 199.106 59.3923 209.909 53.0752ZM494.62 54.5088C495.735 52.602 498.185 51.9602 500.092 53.0752C510.895 59.3923 521.043 66.267 530.751 73.4951L532.687 74.9463C534.45 76.276 534.803 78.7839 533.474 80.5479C532.186 82.2566 529.791 82.6402 528.039 81.4541L527.871 81.334C517.775 73.7237 507.258 66.5321 496.054 59.9805C494.147 58.8653 493.505 56.4157 494.62 54.5088ZM1108.19 50.5342C1110.11 49.6467 1112.41 50.4127 1113.41 52.3076C1114.4 54.2024 1113.72 56.5312 1111.9 57.6084L1111.72 57.709L1109.41 58.9365C1097.95 65.0979 1087.86 71.5955 1079.1 77.9893C1077.31 79.291 1074.81 78.8996 1073.51 77.1152C1072.21 75.3306 1072.6 72.8284 1074.38 71.5264C1083.42 64.9309 1093.82 58.2352 1105.62 51.8896L1108 50.625L1108.19 50.5342ZM2296.6 52.3076C2297.59 50.4127 2299.89 49.6465 2301.81 50.5342L2302 50.625L2304.38 51.8896C2316.18 58.2352 2326.58 64.9309 2335.62 71.5264C2337.4 72.8284 2337.8 75.3307 2336.49 77.1152C2335.19 78.8997 2332.69 79.2907 2330.91 77.9893C2322.14 71.5955 2312.05 65.098 2300.59 58.9365L2298.28 57.709L2298.1 57.6084C2296.28 56.5313 2295.6 54.2025 2296.6 52.3076ZM1315.79 25.873C1316.24 23.7106 1318.36 22.3231 1320.52 22.7744C1333.18 25.4149 1344.99 28.8053 1356.12 32.8164L1358.34 33.627C1360.41 34.3953 1361.47 36.6975 1360.7 38.7686C1359.93 40.8396 1357.63 41.8958 1355.56 41.1279C1344.15 36.8994 1331.99 33.3399 1318.89 30.6055C1316.73 30.154 1315.34 28.0355 1315.79 25.873ZM2089.48 22.7744C2091.64 22.3234 2093.76 23.7107 2094.21 25.873C2094.66 28.0353 2093.27 30.1538 2091.11 30.6055C2078.01 33.3399 2065.85 36.8994 2054.45 41.1279C2052.38 41.8961 2050.07 40.8396 2049.3 38.7686C2048.54 36.6973 2049.59 34.3952 2051.66 33.627L2053.88 32.8164C2065.01 28.8053 2076.83 25.4149 2089.48 22.7744ZM289.475 22.3799C291.637 21.9292 293.756 23.3171 294.207 25.4795C294.658 27.6421 293.27 29.7609 291.107 30.2119C278.005 32.9439 265.841 36.5007 254.439 40.7275L254.245 40.7939C252.226 41.4281 250.043 40.3738 249.299 38.3672C248.531 36.296 249.588 33.9946 251.659 33.2266L253.875 32.416C265.003 28.4066 276.823 25.018 289.475 22.3799ZM415.794 25.4795C416.245 23.3171 418.364 21.9292 420.526 22.3799C433.178 25.018 444.998 28.4066 456.126 32.416L458.342 33.2266C460.413 33.9946 461.47 36.296 460.702 38.3672C459.958 40.3738 457.775 41.4281 455.756 40.7939L455.562 40.7275C444.16 36.5007 431.996 32.9439 418.894 30.2119C416.731 29.7609 415.343 27.6421 415.794 25.4795ZM1189.33 22.4658C1191.43 22.1703 1193.41 23.567 1193.82 25.668C1194.24 27.8367 1192.82 29.9351 1190.65 30.3545C1177.31 32.9327 1164.9 36.2381 1153.38 40.0557C1151.28 40.7505 1149.02 39.6141 1148.33 37.5176C1147.63 35.4206 1148.77 33.157 1150.86 32.4619C1161.96 28.783 1173.86 25.5703 1186.58 23.0039L1189.13 22.499L1189.33 22.4658ZM2216.18 25.668C2216.59 23.5669 2218.57 22.17 2220.67 22.4658L2220.87 22.499L2223.42 23.0039C2236.14 25.5703 2248.04 28.783 2259.14 32.4619C2261.24 33.1572 2262.37 35.4208 2261.68 37.5176C2260.98 39.614 2258.72 40.7502 2256.62 40.0557C2245.11 36.2381 2232.69 32.9328 2219.35 30.3545C2217.18 29.9353 2215.76 27.8368 2216.18 25.668ZM1255 16.3809C1261.74 16.3809 1268.29 16.559 1274.65 16.9043C1276.85 17.0244 1278.55 18.9096 1278.43 21.1152C1278.31 23.3207 1276.42 25.0119 1274.22 24.8926C1268 24.5553 1261.6 24.3809 1255 24.3809C1249.21 24.3809 1243.54 24.516 1238 24.7754L1235.63 24.8936L1235.42 24.8994C1233.31 24.9054 1231.53 23.2503 1231.42 21.1133C1231.31 18.9762 1232.89 17.1417 1235 16.9219L1235.2 16.9053L1237.62 16.7842C1243.29 16.5189 1249.08 16.3809 1255 16.3809ZM2155 16.3809C2160.92 16.3809 2166.71 16.5189 2172.38 16.7842L2174.8 16.9053L2175.01 16.9219C2177.11 17.1419 2178.7 18.9764 2178.58 21.1133C2178.47 23.2501 2176.7 24.9051 2174.58 24.8994L2174.37 24.8936L2172.01 24.7754C2166.46 24.5159 2160.8 24.3809 2155 24.3809C2148.4 24.3809 2142 24.5553 2135.79 24.8926C2133.58 25.0121 2131.7 23.3208 2131.58 21.1152C2131.46 18.9094 2133.15 17.0242 2135.35 16.9043C2141.71 16.559 2148.26 16.3809 2155 16.3809ZM355.001 16C360.9 15.9988 366.649 16.1333 372.256 16.3975L374.65 16.5186C376.856 16.6382 378.548 18.5238 378.429 20.7295C378.313 22.8662 376.54 24.5197 374.424 24.5127L374.218 24.5068C368.005 24.1709 361.604 23.9986 355.003 24L355 23.999L354.998 24C348.397 23.9986 341.996 24.1709 335.783 24.5068L335.577 24.5127C333.461 24.5197 331.688 22.8662 331.572 20.7295C331.453 18.5238 333.145 16.6382 335.351 16.5186L337.745 16.3975C343.352 16.1333 349.101 15.9988 355 16H355.001Z" fill="#FF9601"/>
</g>
</g>
<defs>
<filter id="filter0_d_741_1380" x="-340" y="0" width="2740" height="240.381" filterUnits="userSpaceOnUse" color-interpolation-filters="sRGB">
<feFlood flood-opacity="0" result="BackgroundImageFix"/>
<feColorMatrix in="SourceAlpha" type="matrix" values="0 0 0 0 0 0 0 0 0 0 0 0 0 0 0 0 0 0 127 0" result="hardAlpha"/>
<feOffset/>
<feGaussianBlur stdDeviation="8"/>
<feComposite in2="hardAlpha" operator="out"/>
<feColorMatrix type="matrix" values="0 0 0 0 1 0 0 0 0 0.588235 0 0 0 0 0.00392157 0 0 0 0.8 0"/>
<feBlend mode="normal" in2="BackgroundImageFix" result="effect1_dropShadow_741_1380"/>
<feBlend mode="normal" in="SourceGraphic" in2="effect1_dropShadow_741_1380" result="shape"/>
</filter>
<clipPath id="clip0_741_1380">
<rect width="1920" height="240" fill="white"/>
</clipPath>
</defs>
</svg>
