<svg width="263" height="146" viewBox="0 0 263 146" fill="none" xmlns="http://www.w3.org/2000/svg">
<path d="M143.045 94.0145L165.386 95.9113C197.068 96.4172 228.119 89.5884 258.917 82.7596C263.208 82.8861 264.975 89.0825 259.927 90.9794C255.256 92.8763 246.926 94.3938 241.877 95.532C206.913 103.499 170.435 107.672 134.84 101.602C100.382 123.732 58.4762 139.919 17.5802 144.977C13.7936 145.483 4.57937 147.001 1.80249 144.977C-0.974398 142.954 -0.469511 139.034 2.81226 137.769C44.0869 133.47 85.6139 121.077 121.082 99.3257C100.003 95.1526 83.8468 78.5865 74.885 59.6176C68.3215 45.8336 63.7775 24.462 82.2059 17.8861C96.3428 12.8278 106.314 20.7947 115.529 30.4056C123.354 18.5184 133.326 0.940616 149.23 0.0554026C165.134 -0.829811 168.037 9.03399 170.688 19.5301C177.504 46.4659 161.978 75.425 143.171 93.7615L143.045 94.0145ZM147.715 9.66629C138.249 11.0573 130.423 23.5768 125.626 31.0379C120.83 38.4989 120.325 41.6604 117.548 42.2927C112.121 43.5573 107.198 34.5787 103.159 31.2908C99.1197 28.0028 92.8086 24.462 86.1188 26.3589C68.7002 31.0379 82.0797 57.0884 88.2646 66.4464C96.9739 79.3452 107.703 87.4386 122.849 91.1059C131.678 93.2436 129.918 93.0028 131.18 92.3705C150.366 76.3102 167.027 50.639 162.357 24.462C157.778 7.58754 151.466 8.85213 147.463 9.66629H147.715Z" fill="#E85397"/>
</svg>
