<svg width="95" height="100" viewBox="0 0 95 100" fill="none" xmlns="http://www.w3.org/2000/svg">
<path d="M80.6555 79.7185C85.7787 74.5077 87.1959 73.4616 88.9276 73.5949C91.2385 73.7362 93.2599 75.9032 94.2915 79.3626C95.2713 82.7639 95.1459 87.092 93.9676 90.1131C93.118 92.2704 92.7607 92.6913 89.9584 95.1713C87.0686 97.7287 86.6952 97.9551 84.0849 98.6518C80.5185 99.6216 77.5013 99.2718 73.7502 97.3861C72.1693 96.5994 70.701 95.7643 70.4936 95.5305C67.633 93.6376 69.5915 92.2164 69.9914 91.5503C70.6065 90.5373 77.2099 83.2362 80.6555 79.7185ZM88.4403 81.1046C88.182 80.8127 87.0142 81.8465 81.9494 87.0055C78.0364 90.9369 77.3053 92.0521 78.0287 92.8695C79.2431 94.2414 83.8171 93.057 86.5028 90.6801C88.1117 89.2042 88.978 86.7713 88.8191 83.9448C88.7672 82.5337 88.5695 81.2514 88.4403 81.1046ZM72.1599 70.9426C74.5189 68.4905 79.4496 64.1792 81.0576 63.1726C83.8131 61.4631 86.7409 62.3598 87.02 65.0279C87.1052 65.8889 86.6621 66.3331 80.4161 71.8607C73.3191 78.1935 71.1472 80.7398 65.6058 89.1837C63.9331 91.7051 63.3717 92.3061 62.3802 92.7151C60.1412 93.6554 58.2185 92.1296 58.557 89.7477C58.9646 87.1485 66.1735 77.1775 72.1599 70.9426ZM10.5525 14.269C12.825 11.425 19.5348 6.00694 23.0124 4.23072C28.2563 1.56812 33.9739 0.205145 40.6109 0.0577814C46.3348 -0.0623182 53.8501 2.13629 60.0902 5.77568C62.8642 7.38094 63.414 7.88404 67.2374 12.2043C70.9867 16.382 71.5711 17.2192 73.1955 20.4664C76.657 27.5541 78.1168 35.3214 78.0214 46.3899C78.0045 51.194 78.8399 55.6087 80.4036 58.4933C81.7604 61.1443 80.2627 63.511 77.6259 62.8255C76.594 62.5416 76.3358 62.2489 75.2878 60.4178C72.4175 55.4098 71.7639 52.0831 71.9991 43.7021C72.3224 32.0676 69.4669 23.1936 63.0856 15.9829C57.6602 9.85244 50.0306 6.34885 41.4879 6.04848C33.0258 5.7807 27.2357 7.8863 20.0259 13.7983C13.4554 19.1967 9.72667 24.6303 8.00305 31.153C5.63319 40.1217 6.90976 48.6229 11.9054 57.2678C13.9276 60.7881 18.621 65.7976 22.0152 68.1036C26.4179 71.0785 29.3753 71.9499 36.8198 72.5974C46.8472 73.4579 51.0557 75.0958 56.1372 80.0731C58.3496 82.2789 58.5537 82.5675 58.4866 83.6679C58.3992 85.0985 57.0817 86.3167 55.7645 86.1812C55.1334 86.1151 53.9369 85.3515 52.7059 84.2547C48.3535 80.4541 44.4844 79.1411 37.0422 78.9079C27.036 78.6012 20.1049 75.4153 12.9374 67.9634C7.32692 62.1531 4.13072 56.6005 2.22011 49.4418C1.01304 44.7839 0.762292 42.5587 0.95441 37.5996C1.3098 29.0601 4.06655 22.3516 10.5525 14.269ZM28.9061 44.7732C29.83 42.7584 30.9396 41.7763 33.0227 41.1302C35.8929 40.2559 38.7175 41.0363 44.67 44.4096C45.0965 44.6564 45.1295 44.5757 44.8915 43.954C43.1016 39.3434 42.6147 35.5567 43.5069 33.1533C44.3603 30.9409 47.9235 28.6731 50.5456 28.6951C53.2777 28.724 56.1632 31.2204 57.2307 34.5441C57.5519 35.6135 57.7154 37.915 57.608 39.6755C57.4223 43.1714 56.4412 46.1223 54.5607 48.8796L53.3784 50.6028L54.9568 52.7974C55.8511 53.9844 58.6442 57.5523 61.2692 60.695C66.4086 66.9728 67.2017 68.4577 66.2895 69.8379C65.442 71.0563 64.052 71.6623 63.0008 71.2395C62.0271 70.9039 52.3872 60.0702 49.792 56.4318C48.6204 54.8139 48.3808 54.6611 47.7588 54.8992C47.3601 55.0958 45.9468 55.6172 44.5925 56.0869C41.7414 57.1002 37.3619 56.9162 34.5969 55.6153C29.7068 53.3838 27.1821 48.5896 28.9061 44.7732ZM50.5987 34.5815C49.5408 34.2686 48.555 35.0375 48.5137 36.1672C48.5348 37.1922 50.4323 44.0987 50.7625 44.1192C50.8727 44.1256 51.2207 43.4019 51.5787 42.5128C52.6887 39.7085 52.0901 35.0318 50.5987 34.5815ZM37.4471 46.8973C35.2864 46.1028 33.7448 46.4788 34.1954 47.6937C35.0778 49.9841 38.2988 51.506 41.152 50.9069C42.2689 50.699 43.1985 50.3964 43.2385 50.2054C43.2373 49.7352 39.769 47.7568 37.4471 46.8973Z" fill="#7748CC"/>
</svg>
