<svg width="144" height="54" viewBox="0 0 144 54" fill="none" xmlns="http://www.w3.org/2000/svg">
<path d="M80.2961 42.9438C84.1067 42.8323 88.3635 42.6649 92.1487 42.8576C94.0172 42.954 99.5392 43.5168 100.751 44.9036C102.14 46.4958 101.073 48.4023 99.1741 48.8891C96.0785 49.6827 91.1396 49.239 87.8184 49.4494C70.7278 50.5346 53.6651 52.6237 36.5847 54.0003C32.655 53.7265 31.4304 48.9145 34.9798 47.0662C38.9451 45 47.768 44.9569 52.329 44.6399C61.6159 43.996 70.9712 43.2151 80.2936 42.9413L80.2961 42.9438Z" fill="white"/>
<path d="M106.146 44.2059C107.406 44.0335 109.259 44.0842 109.817 45.4711C111.287 49.1245 106.371 51.1121 103.796 49.2107C101.037 47.1723 103.484 44.571 106.143 44.2059H106.146Z" fill="white"/>
<path d="M51.2569 8.20674C63.3782 7.06838 73.8187 13.754 72.082 27.0036C70.9462 35.6693 54.4057 40.7957 47.3347 37.8497C45.8313 37.2235 45.593 36.1865 45.4738 34.64C45.2862 32.1832 45.844 29.1738 45.7451 26.5067C45.669 24.4226 45.4003 22.0445 45.2254 19.9275C45.0149 17.3542 43.6383 12.5472 45.1189 10.4378C46.2091 8.88367 49.4289 8.37914 51.2569 8.20927V8.20674ZM55.6227 27.4042C59.6133 27.5842 61.7784 24.7674 60.4525 20.9264C60.0544 19.7754 59.8186 19.3621 58.6575 18.9185C53.4398 16.9308 56.0486 24.737 55.6227 27.4042Z" fill="white"/>
<path d="M11.4224 11.2651C12.7256 12.5227 12.8118 15.2963 12.7763 17.0102C13.2149 17.1243 13.2833 16.8276 13.5369 16.6324C14.7335 15.7146 15.7477 14.2872 17.1015 13.3517C19.9512 11.3843 22.9607 10.4513 25.3033 13.7371C28.9744 18.8863 21.0566 20.8486 18.4833 23.3535C18.2374 23.5944 18.0066 23.6882 18.1004 24.1065C20.0856 25.2677 25.8484 27.5495 26.5811 29.6994C27.3138 31.8494 25.2298 35.1884 23.308 36.0377C18.2703 38.2688 15.7198 32.5263 12.5228 29.9403C13.1414 33.3985 15.2634 37.8961 10.5452 39.2474C1.342 41.8816 0.409004 31.1496 0.099695 24.7404C-0.0955244 20.6534 -0.47329 12.1297 4.22465 10.3626C6.12361 9.64762 9.9063 9.80227 11.4199 11.2651H11.4224Z" fill="white"/>
<path d="M34.7848 11.7614C36.5722 11.6499 39.9847 12.0809 41.516 12.991C44.7131 14.8875 42.0408 20.3688 41.5059 23.3022C41.0039 26.0657 40.5653 34.8303 39.0035 36.5188C37.0818 38.6003 30.9387 38.3138 29.5646 35.3348C27.9445 31.8208 28.0332 17.765 29.8079 14.3931C30.8829 12.3521 32.5993 11.9009 34.7822 11.7614H34.7848Z" fill="white"/>
<path d="M38.1992 10.6081C37.7631 10.1315 36.9416 6.54146 36.5512 5.53494C36.2241 4.69068 34.8348 2.59144 34.9007 1.96014C35.0579 0.459237 38.4147 -0.362205 39.6494 0.155C41.7435 1.03222 42.7678 8.32886 41.8728 10.2253C41.3607 11.3104 38.9598 11.4346 38.1992 10.6056V10.6081Z" fill="white"/>
<path d="M31.4673 3.35412C33.1837 2.88255 36.5304 7.3371 36.6115 8.79237C36.6799 10.0296 34.8063 10.6229 33.8074 10.3085C33.3181 10.1538 31.6549 8.51602 31.0059 8.03178C30.22 7.44358 28.5238 7.1292 29.1272 5.85647C29.2692 5.55731 31.1682 3.43525 31.4648 3.35412H31.4673Z" fill="white"/>
<path d="M123.055 10.1265C126.521 9.81971 130.722 10.4079 134.36 10.3242C136.576 10.2735 141.099 9.31772 142.572 11.2826C143.832 12.961 143.809 18.9418 141.654 19.9965C139.92 20.8458 138.186 19.4488 136.746 19.6136C135.306 19.7784 135.6 22.0222 135.653 23.0718C135.805 26.0914 136.693 29.0552 137.114 32.0367C137.605 35.5228 137.641 38.4485 133.338 38.7654C130.95 38.9404 127.119 39.1381 126.082 36.4938C124.668 32.8886 127.545 25.526 127.502 21.3757C127.472 18.313 124.3 20.2576 122.568 20.3007C119.43 20.3818 119.387 16.3913 119.567 14.1196C119.762 11.6553 120.497 10.3547 123.055 10.129V10.1265Z" fill="white"/>
<path d="M86.1334 10.3696C87.4365 11.6272 87.5227 14.4008 87.4872 16.1147C87.9258 16.2288 87.9943 15.9321 88.2478 15.7369C89.4445 14.8191 90.4586 13.3917 91.8125 12.4562C94.6622 10.4888 97.6716 9.5558 100.014 12.8416C103.685 17.9908 95.7676 19.9531 93.1942 22.458C92.9483 22.6989 92.7176 22.7927 92.8114 23.211C94.7965 24.3722 100.559 26.654 101.292 28.8039C102.012 30.9158 99.9407 34.2929 98.0189 35.1422C92.9812 37.3733 90.4307 31.6308 87.2337 29.0448C87.8523 32.503 89.9744 37.0006 85.2561 38.3519C76.0529 40.9861 75.1199 30.2541 74.8106 23.8449C74.6154 19.7579 74.2377 11.2342 78.9356 9.46707C80.8346 8.75211 84.6172 8.90676 86.1308 10.3696H86.1334Z" fill="white"/>
<path d="M109.496 10.8698C111.283 10.7583 114.696 11.1893 116.227 12.0994C119.424 13.9959 116.752 19.4772 116.217 22.4106C115.715 25.1741 115.276 33.9387 113.714 35.6272C111.793 37.7087 105.65 37.4222 104.275 34.4432C102.655 30.9292 102.744 16.8734 104.519 13.5015C105.594 11.4605 107.31 11.0093 109.493 10.8698H109.496Z" fill="white"/>
</svg>
