<svg width="200" height="76" viewBox="0 0 200 76" fill="none" xmlns="http://www.w3.org/2000/svg">
<path d="M111.976 59.8855C117.29 59.7299 123.226 59.4966 128.505 59.7653C131.11 59.8996 138.811 60.6845 140.501 62.6185C142.438 64.8388 140.95 67.4975 138.302 68.1764C133.985 69.283 127.097 68.6643 122.466 68.9577C98.6326 70.4709 74.8384 73.3842 51.0194 75.304C45.5393 74.9222 43.8316 68.2117 48.7814 65.6343C54.311 62.7528 66.6147 62.6927 72.9751 62.2508C85.9259 61.3528 98.9721 60.2638 111.972 59.882L111.976 59.8855Z" fill="#FF9601"/>
<path d="M148.024 61.6456C149.782 61.4052 152.366 61.4759 153.144 63.4099C155.194 68.5046 148.339 71.2765 144.747 68.6248C140.9 65.7822 144.312 62.1547 148.021 61.6456H148.024Z" fill="#FF9601"/>
<path d="M71.477 11.445C88.3805 9.85756 102.94 19.1808 100.518 37.6576C98.9341 49.7421 75.8681 56.891 66.0075 52.7827C63.9109 51.9094 63.5786 50.4634 63.4124 48.3067C63.1507 44.8808 63.9286 40.6841 63.7907 36.9647C63.6846 34.0584 63.3098 30.7421 63.0659 27.7899C62.7724 24.2013 60.8526 17.4979 62.9174 14.5563C64.4377 12.389 68.9278 11.6854 71.477 11.4486V11.445ZM77.5652 38.2162C83.1302 38.4673 86.1495 34.5393 84.3004 29.1829C83.7453 27.5778 83.4165 27.0015 81.7972 26.3827C74.5211 23.6109 78.1592 34.4968 77.5652 38.2162Z" fill="#7748CC"/>
<path d="M15.9288 15.7093C17.7461 17.4629 17.8663 21.3308 17.8168 23.7208C18.4284 23.8799 18.5239 23.4663 18.8775 23.194C20.5462 21.9141 21.9605 19.9236 23.8484 18.619C27.8224 15.8754 32.0191 14.5743 35.286 19.1564C40.4054 26.3371 29.3639 29.0736 25.7753 32.5668C25.4324 32.9026 25.1106 33.0335 25.2415 33.6168C28.0098 35.2361 36.0461 38.4181 37.0679 41.4163C38.0897 44.4144 35.1834 49.0707 32.5035 50.2551C25.4783 53.3664 21.9216 45.3584 17.4632 41.7521C18.3259 46.5746 21.2852 52.8467 14.7055 54.7311C1.87145 58.4046 0.570364 43.4386 0.139027 34.5007C-0.133211 28.8014 -0.660012 16.9149 5.89137 14.4506C8.5395 13.4536 13.8145 13.6692 15.9253 15.7093H15.9288Z" fill="#7748CC"/>
<path d="M48.5067 16.402C50.9993 16.2465 55.7581 16.8475 57.8936 18.1168C62.3519 20.7613 58.6255 28.4052 57.8795 32.4959C57.1794 36.3496 56.5678 48.572 54.3899 50.9267C51.7099 53.8294 43.1433 53.4299 41.227 49.2756C38.9678 44.3753 39.0915 24.7742 41.5664 20.0719C43.0655 17.2258 45.4591 16.5965 48.5032 16.402H48.5067Z" fill="#7748CC"/>
<path d="M53.2709 14.7932C52.6628 14.1285 51.5173 9.12221 50.9728 7.71859C50.5167 6.54126 48.5792 3.61381 48.6711 2.73346C48.8903 0.640415 53.5714 -0.505103 55.2932 0.21615C58.2136 1.43945 59.642 11.6148 58.3939 14.2594C57.6797 15.7726 54.3316 15.9458 53.2709 14.7897V14.7932Z" fill="#7748CC"/>
<path d="M43.8822 4.67777C46.2757 4.02016 50.9427 10.2321 51.0558 12.2615C51.1513 13.9869 48.5385 14.8142 47.1455 14.3758C46.4631 14.1601 44.1438 11.8762 43.2387 11.2009C42.1427 10.3806 39.7774 9.94221 40.6188 8.16736C40.8168 7.75017 43.465 4.79091 43.8786 4.67777H43.8822Z" fill="#7748CC"/>
<path d="M171.603 14.1215C176.436 13.6937 182.295 14.5139 187.368 14.3972C190.458 14.3265 196.766 12.9936 198.82 15.7337C200.577 18.0742 200.545 26.4146 197.54 27.8854C195.122 29.0698 192.703 27.1217 190.695 27.3515C188.687 27.5813 189.097 30.7103 189.171 32.174C189.383 36.3848 190.621 40.5179 191.208 44.6757C191.894 49.5371 191.943 53.6171 185.943 54.0591C182.613 54.303 177.271 54.5788 175.825 50.8912C173.852 45.8637 177.865 35.5964 177.805 29.8087C177.762 25.5378 173.339 28.2495 170.924 28.3096C166.547 28.4228 166.487 22.8578 166.738 19.69C167.01 16.2534 168.036 14.4397 171.603 14.125V14.1215Z" fill="#7748CC"/>
<path d="M120.116 14.4605C121.934 16.2141 122.054 20.082 122.004 22.472C122.616 22.6311 122.711 22.2175 123.065 21.9452C124.734 20.6654 126.148 18.6749 128.036 17.3702C132.01 14.6266 136.207 13.3256 139.473 17.9076C144.593 25.0883 133.551 27.8249 129.963 31.318C129.62 31.6539 129.298 31.7847 129.429 32.3681C132.197 33.9873 140.234 37.1693 141.255 40.1675C142.259 43.1126 139.371 47.8219 136.691 49.0064C129.666 52.1176 126.109 44.1096 121.651 40.5034C122.513 45.3258 125.473 51.5979 118.893 53.4824C106.059 57.1558 104.758 42.1898 104.327 33.2519C104.054 27.5526 103.527 15.6661 110.079 13.2018C112.727 12.2048 118.002 12.4205 120.113 14.4605H120.116Z" fill="#7748CC"/>
<path d="M152.694 15.1576C155.187 15.0021 159.946 15.6031 162.081 16.8724C166.539 19.517 162.813 27.1608 162.067 31.2515C161.367 35.1052 160.755 47.3276 158.577 49.6823C155.897 52.585 147.331 52.1855 145.415 48.0312C143.155 43.1309 143.279 23.5298 145.754 18.8275C147.253 15.9814 149.647 15.3521 152.691 15.1576H152.694Z" fill="#7748CC"/>
</svg>
