<svg width="85" height="128" viewBox="0 0 85 128" fill="none" xmlns="http://www.w3.org/2000/svg">
<path d="M48.726 1.37753C51.4305 0.132844 55.5948 0.862504 66.1118 4.42538C81.5657 9.61963 85.0004 11.7665 85.0004 16.1451C85.0003 19.7508 82.2955 22.2837 78.518 22.2838C76.0282 22.2838 75.2981 23.0992 74.0532 27.1773C71.5634 35.3337 69.8891 46.538 69.8891 55.1236C69.8462 60.9618 69.9749 63.3663 70.8764 73.1539C72.5935 92.6002 73.0228 111.274 71.8637 116.254C70.3183 123.165 66.0257 126.556 57.9555 127.286C53.3193 127.715 45.2485 126.126 36.019 122.907C29.494 120.675 15.2419 115.137 12.1938 113.677C6.26986 110.887 2.79251 107.367 0.817829 102.172C-0.469826 98.6952 -0.212767 92.9857 1.41841 89.8092C3.6508 85.4734 12.2371 75.1283 24.729 61.7779C36.6199 49.0285 41.041 43.5759 42.7153 39.6266C43.6167 37.4802 49.7988 15.8028 49.7993 14.8141C49.7992 14.3847 48.9398 13.2261 47.9096 12.2389C44.089 8.50411 44.4332 3.35222 48.726 1.37753ZM25.5229 78.734C21.2621 78.734 20.4168 76.4516 19.5512 77.2037C18.6855 77.956 8.11371 90.8164 7.08443 93.2867C5.06714 98.0517 7.64329 103.933 12.9233 106.68C17.9895 109.299 40.526 117.713 46.7504 119.344C57.654 122.178 63.1491 121.275 65.4243 116.338C66.2398 114.493 66.3256 113.634 66.3256 104.491C66.3256 99.0391 66.1536 93.3294 65.9819 91.7838C65.6814 89.2943 65.4672 88.8644 64.4799 88.4351C62.2478 87.4049 59.5001 87.362 56.1948 88.3922C50.5283 90.1093 48.0378 89.3797 39.1518 83.4986C34.6446 80.4939 29.7835 78.7341 25.5229 78.734ZM49.5405 104.061C50.7851 102.817 51.3864 102.731 53.4467 103.589C56.2797 104.792 55.8929 108.139 52.8022 109.041C51.257 109.513 50.9135 109.471 49.8833 108.698C48.252 107.496 48.1239 105.478 49.5405 104.061ZM16.646 95.2672C17.8909 92.8632 20.2523 92.563 22.227 94.5377C23.3428 95.6964 23.4718 96.0402 23.2143 97.4566C22.8708 99.3883 21.5396 100.505 19.6508 100.547C16.9465 100.547 15.3153 97.714 16.646 95.2672ZM36.5004 92.4869C36.5008 89.2676 40.1494 87.5075 42.6391 89.482C43.9268 90.5122 44.4849 92.4871 43.7983 93.732C43.2403 94.8051 41.2227 95.9213 39.7631 95.9215C38.5612 95.9215 36.5004 93.7318 36.5004 92.4869ZM54.0913 7.08652C53.1469 6.82897 53.1896 6.9581 54.6059 8.2457C57.6966 11.0359 57.6975 11.9378 54.521 22.4976C53.3619 26.2753 51.7301 31.985 50.8715 35.1617C49.1974 41.429 47.6522 44.6487 44.1753 49.2418C41.8187 52.3978 27.3818 68.6983 25.851 70.2291C24.3205 71.7597 31.6541 70.5535 35.0307 71.9293C39.1648 73.6142 41.985 77.2314 44.2172 78.734C49.7977 82.4686 50.8287 82.726 55.851 81.61C59.1993 80.8802 60.2729 80.794 62.1616 81.1803C63.664 81.4807 64.5662 81.5237 64.8667 81.2232C65.1665 80.9195 64.9515 77.2275 64.2221 70.1051C63.6212 64.2241 63.1059 57.6559 63.1059 55.5523C63.106 45.5502 66.7552 25.8043 69.6313 20.2232C71.0909 17.39 72.4648 16.5306 76.1137 16.273L79.2045 16.0162L77.0581 15.0289C75.1692 14.1703 56.8391 7.81644 54.0913 7.08652Z" fill="#7748CC"/>
</svg>
