<svg width="82" height="114" viewBox="0 0 82 114" fill="none" xmlns="http://www.w3.org/2000/svg">
<path d="M29 35C33.9847 28.9075 38.6056 15.556 41.3655 6.4184C41.9948 4.33477 45.3823 4.47495 45.8366 6.60361C47.7835 15.7266 51.1737 28.9251 55.5 35C60.335 41.7893 71.7773 50.2727 77.1216 54.0406C78.3786 54.9267 78.2636 56.8775 76.9191 57.624C71.493 60.6369 60.2739 67.4313 55.5 74.5C51.2476 80.7965 47.8265 96.741 45.8537 107.851C45.4599 110.069 41.8883 110.194 41.3408 108.009C38.5539 96.8859 33.9052 80.8087 29 74.5C23.5092 67.4382 10.9921 58.7128 5.13327 54.8267C3.80191 53.9437 3.93408 51.8927 5.36451 51.1813C11.318 48.2202 23.5901 41.6123 29 35Z" stroke="#FF9601" stroke-width="8" stroke-linecap="round"/>
</svg>
