<svg width="140" height="126" viewBox="0 0 140 126" fill="none" xmlns="http://www.w3.org/2000/svg">
<path d="M91.4198 16.0119C93.3511 16.5484 95.6305 18.2324 95.7069 21.1047C95.8394 26.095 96.3276 30.9249 97.4124 33.576C98.9884 37.4274 103.337 42.9205 106.439 46.5321C108.915 49.4151 107.525 53.9115 103.988 55.0273C101.942 55.6726 99.4116 56.5667 96.9976 57.6713C94.5488 58.792 92.3876 60.0558 90.958 61.3838C89.9709 62.3008 88.7486 63.9745 87.4016 66.2335C86.083 68.4452 84.7443 71.0454 83.4921 73.671C82.1951 76.3906 79.262 76.8838 77.2655 76.4907C75.269 76.0974 72.7416 74.5282 72.5738 71.5189C72.4068 68.5249 72.1451 65.5014 71.7461 62.8439C71.3394 60.1349 70.817 58.005 70.2091 56.6811C68.3252 52.5777 63.4614 46.8104 60.0256 43.0367C57.3652 40.1146 58.8555 35.3693 62.6079 34.3846C64.8341 33.8006 67.5846 32.993 70.2096 31.9936C72.8737 30.9793 75.2333 29.8318 76.7974 28.6257C79.2626 26.7246 82.3363 22.5598 85.1214 18.1724C86.664 15.7429 89.4885 15.4755 91.4198 16.0119ZM90.0675 20.8819C89.8038 20.8087 89.5833 20.8207 89.4606 20.8543C89.4175 20.8662 89.3956 20.8785 89.388 20.883C86.6322 25.2241 83.1419 30.1173 79.8853 32.6288C77.7314 34.2898 74.8214 35.6469 72.0076 36.7182C69.1544 37.8044 66.217 38.6639 63.8909 39.2741C63.8635 39.2813 63.8462 39.2919 63.8262 39.3123C63.8007 39.3382 63.7696 39.3833 63.7508 39.4455C63.732 39.5076 63.734 39.5583 63.7395 39.586C63.7433 39.6052 63.7486 39.6167 63.7639 39.6335C67.126 43.3263 72.5403 49.6455 74.8023 54.5724C75.7177 56.5663 76.3214 59.2749 76.7446 62.0933C77.1748 64.9591 77.4465 68.1476 77.6183 71.2226C77.6242 71.2309 77.6358 71.2472 77.6594 71.269C77.7538 71.356 77.9541 71.475 78.2419 71.5317C78.5296 71.5884 78.76 71.5545 78.8806 71.5097C78.909 71.4992 78.9257 71.4887 78.935 71.4831C80.222 68.7851 81.6334 66.037 83.0597 63.6448C84.46 61.2963 85.9813 59.1071 87.5176 57.6799C89.5301 55.8107 92.2599 54.2806 94.8934 53.0755C97.5616 51.8544 100.305 50.8898 102.467 50.2077C102.495 50.1987 102.518 50.1846 102.542 50.1592C102.57 50.1293 102.6 50.0817 102.618 50.02C102.636 49.9586 102.636 49.9081 102.63 49.8783C102.626 49.8555 102.619 49.842 102.604 49.8254C99.5787 46.3024 94.6683 40.2168 92.7342 35.49C91.2547 31.8742 90.7841 26.1652 90.6533 21.2392L90.6535 21.238C90.6494 21.23 90.6355 21.2071 90.6028 21.1729C90.5134 21.0793 90.3307 20.9551 90.0675 20.8819Z" fill="#FF9601"/>
<path d="M111.35 75.9417C112.428 76.2415 113.72 77.187 113.874 78.7969L113.89 79.1274L113.898 80.5995C113.921 82.0942 113.987 83.6411 114.123 85.0862C114.309 87.0523 114.611 88.6743 115.03 89.7142C115.579 91.0773 116.679 92.8136 117.965 94.5713C119.231 96.3 120.594 97.9369 121.584 99.0809C123.134 100.871 122.264 103.651 120.059 104.322C118.71 104.733 116.872 105.354 115.08 106.151C113.256 106.962 111.628 107.891 110.587 108.868C109.776 109.63 108.737 111.153 107.61 113.186C106.511 115.165 105.423 117.449 104.475 119.574C103.702 121.306 101.903 121.631 100.717 121.398C99.5314 121.164 97.9879 120.181 97.9313 118.284C97.8604 115.909 97.7168 113.312 97.4416 110.989C97.1597 108.609 96.7608 106.72 96.2681 105.631C95.6069 104.17 94.3527 102.333 92.9121 100.491C91.4928 98.6762 89.9766 96.9621 88.8759 95.7622C87.21 93.9462 88.1438 91.0138 90.48 90.4213L91.6739 90.1056C92.9482 89.7564 94.4387 89.3049 95.9019 88.7633C97.8889 88.0278 99.6715 87.1818 100.813 86.2917C101.773 85.5432 102.926 84.2203 104.144 82.5551C105.34 80.9195 106.514 79.0688 107.53 77.3653L107.713 77.0888C108.674 75.7854 110.271 75.6419 111.35 75.9417ZM110.105 80.4275C109.216 81.8731 108.226 83.3944 107.204 84.7928C105.934 86.5292 104.53 88.2003 103.144 89.2816C101.531 90.5389 99.3043 91.546 97.2175 92.3184C95.4669 92.9664 93.7042 93.4854 92.2747 93.8677C93.3347 95.0448 94.6466 96.5552 95.8981 98.1554C97.3802 100.051 98.8676 102.179 99.7227 104.068C100.475 105.729 100.92 108.125 101.207 110.544C101.438 112.5 101.577 114.606 101.662 116.603C102.476 114.839 103.375 113.006 104.295 111.346C105.439 109.286 106.715 107.302 107.992 106.103C109.498 104.689 111.588 103.555 113.54 102.687C115.19 101.953 116.85 101.367 118.186 100.939C117.226 99.8089 116.034 98.3531 114.906 96.811C113.578 94.9974 112.247 92.9494 111.514 91.1316C110.883 89.5655 110.542 87.495 110.349 85.4419C110.194 83.7971 110.125 82.0615 110.105 80.4275Z" fill="#FF9601"/>
<path d="M34.9278 30.8538C36.0066 31.1536 37.2985 32.0991 37.4523 33.709L37.4676 34.0395L37.4763 35.5116C37.4988 37.0063 37.5651 38.5532 37.7014 39.9983C37.8867 41.9644 38.189 43.5864 38.6081 44.6264C39.1575 45.9894 40.2569 47.7257 41.5436 49.4834C42.8089 51.2121 44.1718 52.8491 45.1621 53.993C46.7118 55.7835 45.8422 58.5631 43.6369 59.2345C42.2877 59.6453 40.4499 60.2665 38.658 61.0631C36.8341 61.8739 35.2062 62.8032 34.1648 63.7805C33.3538 64.5418 32.3156 66.065 31.1878 68.0976C30.0895 70.0768 29.0007 72.3613 28.0527 74.4866C27.2802 76.2183 25.4812 76.5435 24.2954 76.3101C23.1095 76.0765 21.566 75.0928 21.5094 73.1962C21.4385 70.8208 21.2949 68.2243 21.0198 65.9015C20.7378 63.5215 20.3389 61.6318 19.8462 60.5433C19.185 59.0826 17.9309 57.2452 16.4902 55.4031C15.0709 53.5883 13.5547 51.8742 12.454 50.6743C10.7881 48.8583 11.7219 45.9259 14.0581 45.3334L15.2521 45.0177C16.5264 44.6685 18.0168 44.217 19.48 43.6754C21.467 42.9399 23.2496 42.094 24.3911 41.2038C25.3507 40.4553 26.5043 39.1324 27.7218 37.4673C28.9177 35.8316 30.0924 33.9809 31.1079 32.2774L31.2916 32.001C32.2524 30.6975 33.8489 30.554 34.9278 30.8538ZM33.683 35.3396C32.7938 36.7852 31.8045 38.3065 30.7821 39.7049C29.5124 41.4414 28.1083 43.1124 26.7219 44.1937C25.1095 45.4511 22.8824 46.4581 20.7956 47.2305C19.0451 47.8785 17.2824 48.3975 15.8528 48.7798C16.9128 49.9569 18.2247 51.4673 19.4762 53.0675C20.9583 54.9626 22.4457 57.0908 23.3008 58.9799C24.0527 60.6411 24.4983 63.0367 24.7849 65.4561C25.0166 67.4118 25.1548 69.5181 25.2399 71.5147C26.0538 69.751 26.9528 67.9177 27.8736 66.2582C29.0167 64.1981 30.2927 62.2141 31.5699 61.0154C33.0765 59.6013 35.1663 58.4667 37.1184 57.5989C38.7683 56.8654 40.4278 56.2793 41.7642 55.851C40.8042 54.721 39.6125 53.2653 38.4837 51.7231C37.1561 49.9095 35.8254 47.8616 35.0926 46.0437C34.4613 44.4776 34.1203 42.4071 33.9267 40.354C33.7717 38.7092 33.7031 36.9736 33.683 35.3396Z" fill="#FF9601"/>
</svg>
