<svg width="133" height="167" viewBox="0 0 133 167" fill="none" xmlns="http://www.w3.org/2000/svg">
<path d="M88.1641 31.3307C91.9609 26.6697 95.5006 16.8558 97.8013 9.44595C98.4473 7.36543 101.886 7.50944 102.358 9.63604C103.999 17.0153 106.629 26.6918 109.918 31.3307C113.745 36.7291 122.618 43.4266 127.18 46.6831C128.429 47.5747 128.31 49.5238 126.974 50.2796C122.356 52.8929 113.688 58.2908 109.918 63.898C106.684 68.7069 104.036 80.3417 102.376 89.311C101.966 91.5276 98.3364 91.6534 97.7732 89.4706C95.4522 80.4747 91.8987 68.7222 88.1641 63.898C83.8181 58.2841 74.1101 51.3951 69.1093 48.0369C67.7857 47.1481 67.9228 45.0987 69.3452 44.3786C74.4119 41.8135 83.8931 36.5737 88.1641 31.3307Z" stroke="#FF9601" stroke-width="8" stroke-linecap="round"/>
<path d="M24.1641 97.3307C27.9609 92.6697 31.5006 82.8558 33.8013 75.4459C34.4473 73.3654 37.8858 73.5094 38.3584 75.636C39.9986 83.0153 42.6286 92.6918 45.9177 97.3307C49.7454 102.729 58.6177 109.427 63.1796 112.683C64.4286 113.575 64.3097 115.524 62.9741 116.28C58.3559 118.893 49.6881 124.291 45.9177 129.898C42.6841 134.707 40.0361 146.342 38.3762 155.311C37.966 157.528 34.3364 157.653 33.7732 155.471C31.4522 146.475 27.8987 134.722 24.1641 129.898C19.8181 124.284 10.1101 117.395 5.10933 114.037C3.78574 113.148 3.92276 111.099 5.3452 110.379C10.4119 107.813 19.8931 102.574 24.1641 97.3307Z" stroke="#FF9601" stroke-width="8" stroke-linecap="round"/>
</svg>
