<svg width="300" height="73" viewBox="0 0 300 73" fill="none" xmlns="http://www.w3.org/2000/svg">
<path fill-rule="evenodd" clip-rule="evenodd" d="M174.051 19.2914L176.841 54.3944H199.622C210.344 53.0256 213.161 40.2844 201.677 36.7541L201.957 35.6812C210.8 33.976 214.219 21.2769 202.251 19.2914H174.051ZM188.931 23.4523C199.972 22.4993 200.215 34.5538 188.931 34.3389V23.4523ZM188.271 38.9561C198.416 38.0046 198.643 50.0575 188.271 49.8442V38.9561ZM214.918 19.2914H231.178L228.052 54.3944H217.897L214.918 19.2914ZM237.001 19.2914H253.261L250.805 46.9322H259.365V54.3959H239.976L237.001 19.2914ZM277.438 18.4318C267.443 18.4318 259.287 26.6602 259.287 36.7417C259.287 46.8247 267.443 55.0391 277.438 55.0391C287.433 55.0391 295.591 46.8247 295.591 36.7417C295.591 26.6602 287.433 18.4318 277.438 18.4318ZM283.718 25.6402L284.079 25.8676C285.957 26.9545 286.707 29.1845 285.756 30.7946L276.284 46.9026C275.33 48.5143 273.022 48.9316 271.159 47.8431L270.783 47.6158C268.92 46.5148 268.165 44.3004 269.12 42.6887L278.592 26.5792C279.543 24.9691 281.851 24.5393 283.718 25.6402ZM103.239 22.11L100.945 25.4783C99.0276 24.3104 96.2759 22.177 93.753 22.3514C90.8021 22.5522 89.5275 24.7401 91.378 27.0495C93.6845 29.921 99.1863 31.8146 102.058 34.7811C105.236 38.0575 106.914 42.1764 103.72 47.7357C101.077 52.8356 93.4433 56.6617 85.7564 54.3383C83.3938 53.6267 78.3232 50.5278 77.7598 48.3259L80.1737 45.4388C86.8957 52.7686 94.9047 48.6326 87.1634 42.4972C83.688 39.7206 78.6438 38.0295 77.1419 32.981C75.3847 27.3438 79.2212 21.2084 84.656 18.8725C91.0434 16.015 98.1949 18.8071 103.239 22.11ZM106.338 19.2634L104.808 26.0295H113.315L115.65 54.3944H126.423L128.919 26.0295H138.58L136.675 19.2634H106.338ZM161.749 19.2914L171.273 54.3944H160.716L158.662 49.5499L140.323 49.5748L138.511 54.3959H131.629L144.67 19.293L161.749 19.2914ZM149.07 27.2784L142.978 42.5657H155.591L149.07 27.2784Z" fill="black"/>
<path fill-rule="evenodd" clip-rule="evenodd" d="M32.6396 8.25684C17.0899 8.25684 4.41016 20.942 4.41016 36.5002C4.41016 52.0585 17.0884 64.7452 32.6396 64.7452C48.1893 64.7452 60.8675 52.06 60.8675 36.5002C60.8675 20.942 48.1893 8.25684 32.6396 8.25684ZM32.6396 11.3573C46.4711 11.3573 57.7548 22.6472 57.7548 36.5002C57.7548 50.3408 46.4711 61.6307 32.6396 61.6307C18.8066 61.6307 7.51045 50.3408 7.51045 36.5002C7.51045 22.6472 18.8066 11.3573 32.6396 11.3573ZM26.1729 20.3518C26.9916 20.6337 27.7433 21.1429 28.4125 21.7206C29.0024 22.2438 29.6203 22.848 29.902 23.6002C30.1837 24.3383 30.0887 25.1714 30.0234 25.9625C29.9284 27.0634 29.8086 28.1769 29.407 29.2109C28.8841 30.5407 28.011 31.7087 27.2873 32.9435C26.4826 34.3263 25.7184 35.7481 24.8049 37.0639C24.1341 38.031 23.1956 38.8096 22.5637 39.8016C22.1357 40.4852 21.7466 41.2529 21.6921 42.058C21.6516 42.7151 21.9193 43.3987 22.3084 43.922C22.6306 44.3393 23.1675 44.6725 23.6765 44.6725C24.3068 44.6725 24.9652 44.3502 25.4212 43.922C26.0391 43.3598 26.3737 42.5267 26.7892 41.8026C27.4055 40.7406 27.93 39.6287 28.5339 38.5667C28.9635 37.8036 29.2327 36.8755 29.902 36.3134L31.3914 35.0645L33.5112 34.8231L34.7454 34.3263L35.3757 32.9435L37.1064 31.5747H38.3546L38.8511 32.4468C38.8511 32.4468 39.4814 31.95 40.2192 31.6962C40.9709 31.4548 41.5888 31.4548 41.5888 31.4548L42.0837 32.0715L44.4447 31.6962L45.8128 31.5747L45.3163 33.4543L45.5715 35.1999L46.3092 35.4413L45.8128 36.944L44.9396 38.4343L45.3163 39.3079L46.5645 39.0681L46.1878 40.3154C45.3567 41.1486 44.4836 41.9272 43.7054 42.8008C43.2354 43.3365 42.6455 43.8597 42.4572 44.5589C42.3358 45.0151 42.7125 45.4714 42.8339 45.9277C42.8339 45.9277 43.9467 45.9277 44.8182 45.6723C45.6914 45.4325 48.5489 44.6772 48.5489 44.6772L51.0453 43.8067L47.9325 47.0395L45.8128 50.1696H18.2027C17.7996 49.6183 17.2238 49.1745 16.9685 48.5454C16.553 47.5503 16.1779 46.4898 16.2168 45.4309C16.2573 44.4094 16.6604 43.4019 17.2098 42.5563C17.8946 41.5223 18.9934 40.8371 19.826 39.937C20.6814 39.0048 21.5087 38.0472 22.3069 37.0655C23.166 36.0455 24.0376 35.038 24.8033 33.9511C25.5815 32.8376 26.3332 31.6822 26.9106 30.4613C27.2857 29.6687 27.6219 28.8231 27.6624 27.9635C27.7028 27.118 27.8227 26.003 27.1659 25.4657L25.7978 24.3383H23.5566L23.4352 23.3448L25.7978 23.0894L26.0531 22.4712L23.5566 22.3513L23.4352 21.3438C23.7714 21.009 23.9862 20.5122 24.4282 20.3503C24.9776 20.1494 25.6219 20.1634 26.1729 20.3518ZM22.0672 22.848V24.2168H19.4509L22.0672 22.848Z" fill="#CC2229"/>
</svg>
