<svg width="16" height="16" viewBox="0 0 16 16" fill="none" xmlns="http://www.w3.org/2000/svg">
<path d="M7.51229 1.15912C7.6297 0.639343 8.3703 0.639343 8.48771 1.15912L9.15954 4.13334C9.23564 4.47021 9.62221 4.63033 9.91422 4.44594L12.4924 2.8179C12.9429 2.53339 13.4666 3.05707 13.1821 3.50763L11.5541 6.08578C11.3697 6.37779 11.5298 6.76436 11.8667 6.84046L14.8409 7.51229C15.3607 7.6297 15.3607 8.3703 14.8409 8.48771L11.8667 9.15954C11.5298 9.23564 11.3697 9.62221 11.5541 9.91422L13.1821 12.4924C13.4666 12.9429 12.9429 13.4666 12.4924 13.1821L9.91422 11.5541C9.62221 11.3697 9.23564 11.5298 9.15954 11.8667L8.48771 14.8409C8.3703 15.3607 7.6297 15.3607 7.51229 14.8409L6.84046 11.8667C6.76436 11.5298 6.37779 11.3697 6.08578 11.5541L3.50763 13.1821C3.05707 13.4666 2.53339 12.9429 2.8179 12.4924L4.44594 9.91422C4.63033 9.62221 4.47021 9.23564 4.13334 9.15954L1.15912 8.48771C0.639343 8.3703 0.639343 7.6297 1.15912 7.51229L4.13334 6.84046C4.47021 6.76436 4.63033 6.37779 4.44594 6.08578L2.8179 3.50763C2.53339 3.05707 3.05707 2.53339 3.50763 2.8179L6.08578 4.44594C6.37779 4.63033 6.76436 4.47021 6.84046 4.13334L7.51229 1.15912Z" fill="#EBE4F7"/>
</svg>
