<svg width="16" height="15" viewBox="0 0 16 15" fill="none" xmlns="http://www.w3.org/2000/svg">
<path d="M7.35604 0.663027C7.47345 0.143249 8.21405 0.143249 8.33146 0.663027L9.00329 3.63725C9.07939 3.97412 9.46596 4.13424 9.75797 3.94984L12.3361 2.32181C12.7867 2.03729 13.3104 2.56098 13.0258 3.01154L11.3978 5.58969C11.2134 5.88169 11.3735 6.26827 11.7104 6.34436L14.6846 7.01619C15.2044 7.1336 15.2044 7.87421 14.6846 7.99162L11.7104 8.66345C11.3735 8.73954 11.2134 9.12612 11.3978 9.41813L13.0258 11.9963C13.3104 12.4468 12.7867 12.9705 12.3361 12.686L9.75797 11.058C9.46596 10.8736 9.07939 11.0337 9.00329 11.3706L8.33146 14.3448C8.21405 14.8646 7.47345 14.8646 7.35604 14.3448L6.68421 11.3706C6.60811 11.0337 6.22154 10.8736 5.92953 11.058L3.35138 12.686C2.90082 12.9705 2.37714 12.4468 2.66165 11.9963L4.28969 9.41813C4.47408 9.12612 4.31396 8.73954 3.97709 8.66345L1.00287 7.99162C0.483093 7.87421 0.483093 7.1336 1.00287 7.01619L3.97709 6.34436C4.31396 6.26827 4.47408 5.88169 4.28969 5.58969L2.66165 3.01154C2.37714 2.56098 2.90082 2.03729 3.35138 2.32181L5.92953 3.94984C6.22154 4.13424 6.60811 3.97412 6.68421 3.63725L7.35604 0.663027Z" fill="#FAFAFA"/>
</svg>
